<?xml version="1.0" encoding="UTF-8"?>
<svg width="40px" height="29px" viewBox="0 0 40 29" version="1.1" xmlns="http://www.w3.org/2000/svg" xmlns:xlink="http://www.w3.org/1999/xlink">
    <title>Email</title>
    <desc>ralexandrastoica@gmail.com</desc>
    <g stroke="none" stroke-width="1" fill="none" fill-rule="evenodd">
        <g id="email" transform="translate(0.000000, -0.250000)" fill="#253237" fill-rule="nonzero">
            <path d="M39.2421875,9.82327586 C39.546875,9.58943966 40,9.80818966 40,10.1778017 L40,25.6034483 C40,27.6023707 38.3203125,29.2241379 36.25,29.2241379 L3.75,29.2241379 C1.6796875,29.2241379 0,27.6023707 0,25.6034483 L0,10.1853448 C0,9.80818966 0.4453125,9.59698276 0.7578125,9.83081897 C2.5078125,11.143319 4.828125,12.8103448 12.796875,18.3997845 C14.4453125,19.5614224 17.2265625,22.0053879 20,21.9903017 C22.7890625,22.012931 25.625,19.5161638 27.2109375,18.3997845 C35.1796875,12.8103448 37.4921875,11.1357759 39.2421875,9.82327586 Z M20,19.5689655 C21.8125,19.5991379 24.421875,17.3663793 25.734375,16.4461207 C36.1015625,9.18211207 36.890625,8.54849138 39.28125,6.73814655 C39.734375,6.3987069 40,5.87068966 40,5.3125 L40,3.87931034 C40,1.88038793 38.3203125,0.25862069 36.25,0.25862069 L3.75,0.25862069 C1.6796875,0.25862069 0,1.88038793 0,3.87931034 L0,5.3125 C0,5.87068966 0.265625,6.39116379 0.71875,6.73814655 C3.109375,8.54094828 3.8984375,9.18211207 14.265625,16.4461207 C15.578125,17.3663793 18.1875,19.5991379 20,19.5689655 Z" id="Shape"></path>
        </g>
    </g>
</svg>
