<?xml version="1.0" encoding="UTF-8"?>
<svg width="38px" height="30px" viewBox="0 0 38 30" version="1.1" xmlns="http://www.w3.org/2000/svg" xmlns:xlink="http://www.w3.org/1999/xlink">
    <title>Github</title>
    <desc>Alexandra Stoica on Github</desc>
    <g stroke="none" stroke-width="1" fill="none" fill-rule="evenodd">
        <g id="github" fill="#253237" fill-rule="nonzero">
            <path d="M14.5012987,20.625974 C14.5012987,22.2545455 13.6519481,24.9194805 11.6415584,24.9194805 C9.63116883,24.9194805 8.78181818,22.2545455 8.78181818,20.625974 C8.78181818,18.9974026 9.63116883,16.3324675 11.6415584,16.3324675 C13.6519481,16.3324675 14.5012987,18.9974026 14.5012987,20.625974 L14.5012987,20.625974 Z M37.4025974,16.6909091 C37.4025974,19.1766234 37.1532468,21.8103896 36.038961,24.0935065 C33.0857143,30.0623377 24.9662338,29.9220779 19.1532468,29.9220779 C13.2467532,29.9220779 4.64415584,30.1324675 1.57402597,24.0935065 C0.436363636,21.8337662 1.77635684e-14,19.1766234 1.77635684e-14,16.6909091 C1.77635684e-14,13.425974 1.08311688,10.3402597 3.23376623,7.83896104 C2.82857143,6.60779221 2.63376623,5.31428571 2.63376623,4.03636364 C2.63376623,2.36103896 3.01558442,1.51948052 3.77142857,0 C7.3012987,0 9.56103896,0.701298701 12.2493506,2.80519481 C14.5090909,2.26753247 16.8311688,2.02597403 19.161039,2.02597403 C21.2649351,2.02597403 23.3844156,2.25194805 25.425974,2.74285714 C28.0753247,0.662337662 30.3350649,0 33.825974,0 C34.5896104,1.51948052 34.9636364,2.36103896 34.9636364,4.03636364 C34.9636364,5.31428571 34.761039,6.58441558 34.3636364,7.79220779 C36.5064935,10.3168831 37.4025974,13.425974 37.4025974,16.6909091 L37.4025974,16.6909091 Z M32.3922078,20.625974 C32.3922078,17.2051948 30.3116883,14.1896104 26.6649351,14.1896104 C25.1922078,14.1896104 23.7818182,14.4545455 22.3012987,14.6571429 C21.1402597,14.8363636 19.9792208,14.9064935 18.787013,14.9064935 C17.6025974,14.9064935 16.4415584,14.8363636 15.2727273,14.6571429 C13.8155844,14.4545455 12.3896104,14.1896104 10.9090909,14.1896104 C7.26233766,14.1896104 5.18181818,17.2051948 5.18181818,20.625974 C5.18181818,27.4675325 11.4467532,28.5194805 16.9012987,28.5194805 L20.6571429,28.5194805 C26.1350649,28.5194805 32.3922078,27.4753247 32.3922078,20.625974 Z M25.9558442,16.3324675 C23.9454545,16.3324675 23.0961039,18.9974026 23.0961039,20.625974 C23.0961039,22.2545455 23.9454545,24.9194805 25.9558442,24.9194805 C27.9662338,24.9194805 28.8155844,22.2545455 28.8155844,20.625974 C28.8155844,18.9974026 27.9662338,16.3324675 25.9558442,16.3324675 Z" id="Shape"></path>
        </g>
    </g>
</svg>
