<?xml version="1.0" encoding="UTF-8"?>
<svg width="30px" height="30px" viewBox="0 0 30 30" version="1.1" xmlns="http://www.w3.org/2000/svg" xmlns:xlink="http://www.w3.org/1999/xlink">
    <title>Linkedin</title>
    <desc>Alexandra Stoica on Linkedin</desc>
    <g stroke="none" stroke-width="1" fill="none" fill-rule="evenodd">
        <g id="linkedin" fill="#253237" fill-rule="nonzero">
            <path d="M6.71517857,30 L0.495535714,30 L0.495535714,9.97098214 L6.71517857,9.97098214 L6.71517857,30 Z M3.60200893,7.23883929 C1.61316964,7.23883929 0,5.59151786 0,3.60267857 C0,1.61334399 1.61267435,0.000669696531 3.60200893,0.000669696531 C5.59134351,0.000669696531 7.20401786,1.61334399 7.20401786,3.60267857 C7.20401786,5.59151786 5.59017857,7.23883929 3.60200893,7.23883929 Z M29.9933036,30 L23.7870536,30 L23.7870536,20.25 C23.7870536,17.9263393 23.7401786,14.9464286 20.5533482,14.9464286 C17.3196429,14.9464286 16.8241071,17.4709821 16.8241071,20.0825893 L16.8241071,30 L10.6111607,30 L10.6111607,9.97098214 L16.5763393,9.97098214 L16.5763393,12.703125 L16.6633929,12.703125 C17.49375,11.1294643 19.5220982,9.46875 22.5482143,9.46875 C28.8428571,9.46875 30,13.6138393 30,18.9977679 L30,30 L29.9933036,30 Z" id="Shape"></path>
        </g>
    </g>
</svg>
