<?xml version="1.0" encoding="UTF-8"?>
<svg width="37px" height="30px" viewBox="0 0 37 30" version="1.1" xmlns="http://www.w3.org/2000/svg" xmlns:xlink="http://www.w3.org/1999/xlink">
    <title>Twitter</title>
    <desc>Alexandra Stoica on Twitter</desc>
    <g stroke="none" stroke-width="1" fill="none" fill-rule="evenodd">
        <g id="twitter" fill="#253237" fill-rule="nonzero">
            <path d="M33.1276442,7.47951923 C33.1510817,7.8075 33.1510817,8.13555288 33.1510817,8.46353365 C33.1510817,18.4673798 25.5369231,29.9941587 11.6204567,29.9941587 C7.33305288,29.9941587 3.35026442,28.7524038 0,26.5970913 C0.609158654,26.6673317 1.19480769,26.6907692 1.82740385,26.6907692 C5.36502404,26.6907692 8.62161058,25.4959615 11.2221635,23.4576923 C7.89533654,23.3873798 5.10735577,21.2085577 4.14677885,18.2097115 C4.61538462,18.2799519 5.08391827,18.3268269 5.57596154,18.3268269 C6.25536058,18.3268269 6.93483173,18.2330769 7.56735577,18.0691587 C4.09997596,17.36625 1.49935096,14.320601 1.49935096,10.6423558 L1.49935096,10.5486779 C2.50673077,11.1109615 3.67824519,11.4623798 4.91985577,11.5091827 C2.88158654,10.1503125 1.54622596,7.8309375 1.54622596,5.20694712 C1.54622596,3.80127404 1.92100962,2.51271635 2.57704327,1.38814904 C6.30216346,5.98009615 11.9015625,8.97887019 18.1802885,9.30692308 C18.0631731,8.74463942 17.9928606,8.15899038 17.9928606,7.57326923 C17.9928606,3.40298077 21.3665625,0.00591346154 25.5602163,0.00591346154 C27.7390385,0.00591346154 29.7069952,0.919615385 31.0893029,2.39560096 C32.7995192,2.06762019 34.4394952,1.43502404 35.8921154,0.568197115 C35.3297596,2.32536058 34.1349519,3.80134615 32.5652885,4.73841346 C34.088149,4.57449519 35.5641346,4.15269231 36.9229327,3.56704327 C35.8922596,5.06639423 34.6036298,6.40175481 33.1276442,7.47951923 Z" id="Path"></path>
        </g>
    </g>
</svg>
